<svg width="11" height="11" viewBox="0 0 11 11" fill="none" xmlns="http://www.w3.org/2000/svg">
<g clip-path="url(#clip0_2703_14)">
<path d="M5.49992 3.2085C4.89213 3.2085 4.30924 3.44994 3.87947 3.87971C3.44969 4.30948 3.20825 4.89237 3.20825 5.50016C3.20825 6.10795 3.44969 6.69084 3.87947 7.12062C4.30924 7.55039 4.89213 7.79183 5.49992 7.79183C6.10771 7.79183 6.6906 7.55039 7.12037 7.12062C7.55014 6.69084 7.79158 6.10795 7.79158 5.50016C7.79158 4.89237 7.55014 4.30948 7.12037 3.87971C6.6906 3.44994 6.10771 3.2085 5.49992 3.2085Z" fill="white"/>
<path fill-rule="evenodd" clip-rule="evenodd" d="M5.49992 0.458496C5.62148 0.458496 5.73806 0.506785 5.82401 0.592739C5.90996 0.678693 5.95825 0.795272 5.95825 0.916829V1.37516C5.95825 1.49672 5.90996 1.6133 5.82401 1.69925C5.73806 1.78521 5.62148 1.8335 5.49992 1.8335C5.37836 1.8335 5.26178 1.78521 5.17583 1.69925C5.08987 1.6133 5.04159 1.49672 5.04159 1.37516V0.916829C5.04159 0.795272 5.08987 0.678693 5.17583 0.592739C5.26178 0.506785 5.37836 0.458496 5.49992 0.458496ZM1.50921 1.50945C1.59516 1.42353 1.71172 1.37526 1.83325 1.37526C1.95479 1.37526 2.07134 1.42353 2.15729 1.50945L2.84479 2.19695C2.92828 2.2834 2.97448 2.39917 2.97344 2.51935C2.97239 2.63952 2.92419 2.75448 2.83921 2.83945C2.75423 2.92443 2.63928 2.97264 2.5191 2.97368C2.39893 2.97472 2.28315 2.92853 2.19671 2.84504L1.50921 2.15754C1.42329 2.07159 1.37502 1.95503 1.37502 1.8335C1.37502 1.71196 1.42329 1.5954 1.50921 1.50945ZM9.49063 1.50945C9.57655 1.5954 9.62482 1.71196 9.62482 1.8335C9.62482 1.95503 9.57655 2.07159 9.49063 2.15754L8.80313 2.84504C8.76085 2.88881 8.71027 2.92373 8.65436 2.94775C8.59844 2.97177 8.53829 2.98442 8.47744 2.98494C8.41658 2.98547 8.35623 2.97388 8.2999 2.95083C8.24357 2.92779 8.1924 2.89375 8.14936 2.85072C8.10633 2.80768 8.0723 2.75651 8.04925 2.70018C8.02621 2.64386 8.01461 2.5835 8.01514 2.52265C8.01567 2.46179 8.02831 2.40165 8.05233 2.34573C8.07635 2.28981 8.11127 2.23923 8.15504 2.19695L8.84254 1.50945C8.92849 1.42353 9.04505 1.37526 9.16659 1.37526C9.28812 1.37526 9.40468 1.42353 9.49063 1.50945ZM0.458252 5.50016C0.458252 5.37861 0.50654 5.26203 0.592495 5.17607C0.678449 5.09012 0.795028 5.04183 0.916585 5.04183H1.37492C1.49648 5.04183 1.61306 5.09012 1.69901 5.17607C1.78496 5.26203 1.83325 5.37861 1.83325 5.50016C1.83325 5.62172 1.78496 5.7383 1.69901 5.82425C1.61306 5.91021 1.49648 5.9585 1.37492 5.9585H0.916585C0.795028 5.9585 0.678449 5.91021 0.592495 5.82425C0.50654 5.7383 0.458252 5.62172 0.458252 5.50016ZM9.16659 5.50016C9.16659 5.37861 9.21487 5.26203 9.30083 5.17607C9.38678 5.09012 9.50336 5.04183 9.62492 5.04183H10.0833C10.2048 5.04183 10.3214 5.09012 10.4073 5.17607C10.4933 5.26203 10.5416 5.37861 10.5416 5.50016C10.5416 5.62172 10.4933 5.7383 10.4073 5.82425C10.3214 5.91021 10.2048 5.9585 10.0833 5.9585H9.62492C9.50336 5.9585 9.38678 5.91021 9.30083 5.82425C9.21487 5.7383 9.16659 5.62172 9.16659 5.50016ZM2.84479 8.15529C2.93072 8.24124 2.97899 8.3578 2.97899 8.47933C2.97899 8.60086 2.93072 8.71742 2.84479 8.80337L2.15729 9.49087C2.07085 9.57436 1.95508 9.62056 1.8349 9.61951C1.71473 9.61847 1.59977 9.57027 1.51479 9.48529C1.42981 9.40031 1.38161 9.28535 1.38057 9.16518C1.37952 9.04501 1.42572 8.92923 1.50921 8.84279L2.19671 8.15529C2.28266 8.06936 2.39922 8.02109 2.52075 8.02109C2.64229 8.02109 2.75884 8.06936 2.84479 8.15529ZM8.15504 8.15529C8.24099 8.06936 8.35755 8.02109 8.47909 8.02109C8.60062 8.02109 8.71718 8.06936 8.80313 8.15529L9.49063 8.84279C9.57412 8.92923 9.62031 9.04501 9.61927 9.16518C9.61823 9.28535 9.57002 9.40031 9.48504 9.48529C9.40007 9.57027 9.28511 9.61847 9.16494 9.61951C9.04476 9.62056 8.92899 9.57436 8.84254 9.49087L8.15504 8.80337C8.06912 8.71742 8.02085 8.60086 8.02085 8.47933C8.02085 8.3578 8.06912 8.24124 8.15504 8.15529ZM5.49992 9.16683C5.62148 9.16683 5.73806 9.21512 5.82401 9.30107C5.90996 9.38703 5.95825 9.50361 5.95825 9.62516V10.0835C5.95825 10.2051 5.90996 10.3216 5.82401 10.4076C5.73806 10.4935 5.62148 10.5418 5.49992 10.5418C5.37836 10.5418 5.26178 10.4935 5.17583 10.4076C5.08987 10.3216 5.04159 10.2051 5.04159 10.0835V9.62516C5.04159 9.50361 5.08987 9.38703 5.17583 9.30107C5.26178 9.21512 5.37836 9.16683 5.49992 9.16683Z" fill="white"/>
</g>
<defs>
<clipPath id="clip0_2703_14">
<rect width="11" height="11" fill="white"/>
</clipPath>
</defs>
</svg>
