<svg width="110" height="12" viewBox="0 0 110 12" fill="none" xmlns="http://www.w3.org/2000/svg">
<path d="M7.812 11.196C14 11.196 15.078 8.2 15.19 6.674H11.172C11.046 6.912 10.654 8.382 7.672 8.382C5.25 8.382 4.55 7.248 4.55 6.128C4.55 5.89 4.564 5.68 4.606 5.414C4.76 4.476 5.502 3.188 8.274 3.188C11.186 3.188 11.424 4.504 11.466 4.784H15.484C15.764 3.3 15.05 0.388 8.722 0.388H8.204C2.058 0.388 0.84 3.384 0.56 5.218C0.49 5.708 0.476 6.002 0.476 6.394C0.476 8.55 1.736 11.196 7.28 11.196H7.812ZM22.7312 11.196C29.2832 11.196 30.2772 8.018 30.5572 6.086C30.6132 5.708 30.6272 5.302 30.6272 4.98C30.6272 3.034 29.4652 0.388 23.5852 0.388H22.9552C16.4592 0.388 15.4232 3.496 15.1432 5.386C15.0872 5.848 15.0732 6.212 15.0732 6.534C15.0732 8.494 16.2492 11.196 22.1012 11.196H22.7312ZM26.5812 5.344C26.5812 5.526 26.5672 5.708 26.5392 5.89C26.3572 7.038 25.5872 8.382 22.6052 8.382C19.8332 8.382 19.1472 7.15 19.1472 6.1C19.1472 5.932 19.1332 5.862 19.1752 5.596C19.2872 4.518 20.0852 3.188 23.0952 3.188C25.8392 3.188 26.5812 4.294 26.5812 5.344ZM31.586 0.584L29.934 11H33.784L34.792 4.602L40.07 11H43.906L45.558 0.584H41.722L40.77 6.604L35.884 0.584H31.586ZM48.4395 11H52.3315L53.5355 3.426H57.8615L58.3235 0.584H45.7515L45.3035 3.426H49.6435L48.4395 11ZM64.1795 6.716H60.7915L62.9615 3.118L64.1795 6.716ZM65.6215 11H69.7795L65.9575 0.584H60.7635L54.2675 11H58.2295L59.2375 9.32H65.0475L65.6215 11ZM75.9444 11.196C82.1324 11.196 83.2104 8.2 83.3224 6.674H79.3044C79.1784 6.912 78.7864 8.382 75.8044 8.382C73.3824 8.382 72.6824 7.248 72.6824 6.128C72.6824 5.89 72.6964 5.68 72.7384 5.414C72.8924 4.476 73.6344 3.188 76.4064 3.188C79.3184 3.188 79.5564 4.504 79.5984 4.784H83.6164C83.8964 3.3 83.1824 0.388 76.8544 0.388H76.3364C70.1904 0.388 68.9724 3.384 68.6924 5.218C68.6224 5.708 68.6084 6.002 68.6084 6.394C68.6084 8.55 69.8684 11.196 75.4124 11.196H75.9444ZM86.4478 11H90.3398L91.5438 3.426H95.8698L96.3318 0.584H83.7598L83.3118 3.426H87.6518L86.4478 11ZM101.979 11.196C107.355 11.196 108.391 9.614 108.657 7.976C108.699 7.794 108.713 7.528 108.713 7.262C108.713 5.344 107.397 4.434 103.659 4.322L101.965 4.28C100.173 4.238 99.9488 3.874 99.9488 3.496C99.9488 3.09 100.159 2.684 102.287 2.684H102.413C104.625 2.684 104.723 3.398 104.765 3.804H108.965C109.147 2.18 108.405 0.402 103.197 0.402H102.007C97.3868 0.402 96.0288 1.564 95.7628 3.132C95.7208 3.286 95.7068 3.51 95.7068 3.734C95.7068 5.33 96.6868 6.716 100.383 6.828L102.119 6.898C104.009 6.968 104.303 7.262 104.303 7.766C104.303 8.214 104.093 8.83 101.713 8.83H101.601C99.3888 8.83 99.2208 7.962 99.2208 7.36H94.9648C94.7968 8.76 95.1748 11.196 100.761 11.196H101.979Z" fill="#A8CF36"/>
</svg>
