<svg width="52" height="46" viewBox="0 0 52 46" fill="none" xmlns="http://www.w3.org/2000/svg">
<path d="M45.7745 39.6232C45.7746 39.6233 45.7734 39.6238 45.7708 39.6247C45.7732 39.6237 45.7745 39.6232 45.7745 39.6232ZM45.1913 38.4792C45.4116 39.022 45.5049 39.41 45.533 39.6614C45.2805 39.6775 44.8821 39.6529 44.3094 39.5302C42.9852 39.2465 41.1517 38.5329 38.9027 37.3684C34.4342 35.0548 28.7146 31.1664 22.8404 26.2374C16.9662 21.3084 12.1437 16.3508 9.08927 12.352C7.55199 10.3394 6.53082 8.65763 6.02147 7.40287C5.80113 6.86009 5.7078 6.47205 5.67978 6.22062C5.93225 6.20457 6.3306 6.2291 6.90339 6.35183C8.22754 6.63555 10.0611 7.34917 12.3101 8.51362C16.7785 10.8273 22.4982 14.7157 28.3723 19.6447C34.2465 24.5737 39.069 29.5312 42.1235 33.5301C43.6608 35.5426 44.6819 37.2244 45.1913 38.4792ZM5.67544 5.97611C5.67548 5.97615 5.67525 5.9775 5.67463 5.98003C5.67509 5.97734 5.6754 5.97607 5.67544 5.97611ZM5.43823 6.25881C5.43818 6.25878 5.43938 6.25825 5.44195 6.25734C5.43956 6.25839 5.43828 6.25885 5.43823 6.25881ZM45.5381 39.902C45.5377 39.9047 45.5373 39.906 45.5373 39.9059C45.5373 39.9059 45.5375 39.9045 45.5381 39.902Z" stroke="url(#paint0_linear_2703_4)" stroke-width="4"/>
<path d="M45.5408 5.95017C45.5408 5.95014 45.5411 5.95141 45.5416 5.9541C45.541 5.95156 45.5407 5.95021 45.5408 5.95017ZM44.3128 6.32589C44.8856 6.20316 45.284 6.17863 45.5364 6.19469C45.5084 6.44612 45.4151 6.83415 45.1948 7.37693C44.6854 8.63169 43.6642 10.3135 42.127 12.3261C39.0725 16.3249 34.25 21.2824 28.3758 26.2114C22.5017 31.1404 16.782 35.0288 12.3135 37.3425C10.0646 38.5069 8.23102 39.2206 6.90687 39.5043C6.33408 39.627 5.93573 39.6515 5.68326 39.6355C5.71128 39.3841 5.80462 38.996 6.02495 38.4532C6.5343 37.1985 7.55547 35.5167 9.09275 33.5041C12.1472 29.5053 16.9697 24.5477 22.8439 19.6187C28.718 14.6897 34.4377 10.8013 38.9062 8.48768C41.1551 7.32323 42.9887 6.60961 44.3128 6.32589ZM5.44171 39.5973C5.44176 39.5973 5.44304 39.5977 5.44543 39.5988C5.44286 39.5979 5.44166 39.5973 5.44171 39.5973ZM5.67892 39.88C5.67888 39.88 5.67857 39.8788 5.67811 39.8761C5.67874 39.8786 5.67896 39.88 5.67892 39.88ZM45.7743 6.2314C45.7769 6.23231 45.778 6.23284 45.778 6.23287C45.7779 6.23291 45.7767 6.23245 45.7743 6.2314Z" stroke="url(#paint1_linear_2703_4)" stroke-width="4"/>
<defs>
<linearGradient id="paint0_linear_2703_4" x1="29.6579" y1="18.1126" x2="21.5548" y2="27.7695" gradientUnits="userSpaceOnUse">
<stop stop-color="#AAD237"/>
<stop offset="1" stop-color="#AAD237" stop-opacity="0"/>
</linearGradient>
<linearGradient id="paint1_linear_2703_4" x1="21.5583" y1="18.0866" x2="29.6614" y2="27.7435" gradientUnits="userSpaceOnUse">
<stop stop-color="#AAD237"/>
<stop offset="1" stop-color="#AAD237" stop-opacity="0"/>
</linearGradient>
</defs>
</svg>
