<svg width="76" height="12" viewBox="0 0 76 12" fill="none" xmlns="http://www.w3.org/2000/svg">
<path d="M8.12 11L11.004 4.406L12.306 11H16.814L22.162 0.584H18.102L14.924 7.36L13.762 0.584H9.422L6.468 7.444L5.068 0.584H0.854L3.388 11H8.12ZM27.9265 11.196C34.4785 11.196 35.4725 8.018 35.7525 6.086C35.8085 5.708 35.8225 5.302 35.8225 4.98C35.8225 3.034 34.6605 0.388 28.7805 0.388H28.1505C21.6545 0.388 20.6185 3.496 20.3385 5.386C20.2825 5.848 20.2685 6.212 20.2685 6.534C20.2685 8.494 21.4445 11.196 27.2965 11.196H27.9265ZM31.7765 5.344C31.7765 5.526 31.7625 5.708 31.7345 5.89C31.5525 7.038 30.7825 8.382 27.8005 8.382C25.0285 8.382 24.3425 7.15 24.3425 6.1C24.3425 5.932 24.3285 5.862 24.3705 5.596C24.4825 4.518 25.2805 3.188 28.2905 3.188C31.0345 3.188 31.7765 4.294 31.7765 5.344ZM39.9593 4.91L40.2533 3.118H44.6913C45.4893 3.118 45.7553 3.44 45.7553 3.902C45.7553 4.392 45.4053 4.91 44.4533 4.91H39.9593ZM39.5673 7.43H43.2493C44.8033 7.43 45.2513 8.06 45.0693 9.25L44.8873 10.398C44.8313 10.748 44.8453 10.902 44.9013 11H48.8633L48.8773 10.93C48.8353 10.762 48.7513 10.482 48.8633 9.824L49.1293 8.186C49.3533 6.828 48.5133 6.086 47.4073 5.75C48.4713 5.498 49.8853 4.714 49.8853 3.076C49.8853 1.578 48.7793 0.584 46.0633 0.584H36.7813L35.1293 11H39.0073L39.5673 7.43ZM52.8662 11L53.6082 6.338L57.9202 11H62.8622L57.6822 5.47L64.3042 0.584H59.3902L53.8742 4.672L54.5182 0.584H50.6402L48.9882 11H52.8662ZM68.5916 11.196C73.9676 11.196 75.0036 9.614 75.2696 7.976C75.3116 7.794 75.3256 7.528 75.3256 7.262C75.3256 5.344 74.0096 4.434 70.2716 4.322L68.5776 4.28C66.7856 4.238 66.5616 3.874 66.5616 3.496C66.5616 3.09 66.7716 2.684 68.8996 2.684H69.0256C71.2376 2.684 71.3356 3.398 71.3776 3.804H75.5776C75.7596 2.18 75.0176 0.402 69.8096 0.402H68.6196C63.9996 0.402 62.6416 1.564 62.3756 3.132C62.3336 3.286 62.3196 3.51 62.3196 3.734C62.3196 5.33 63.2996 6.716 66.9956 6.828L68.7316 6.898C70.6216 6.968 70.9156 7.262 70.9156 7.766C70.9156 8.214 70.7056 8.83 68.3256 8.83H68.2136C66.0016 8.83 65.8336 7.962 65.8336 7.36H61.5776C61.4096 8.76 61.7876 11.196 67.3736 11.196H68.5916Z" fill="white"/>
</svg>
