<svg width="191" height="12" viewBox="0 0 191 12" fill="none" xmlns="http://www.w3.org/2000/svg">
<path d="M4.634 11H8.512L9.128 7.108L15.596 0.584H11.2L7.602 4.182L5.18 0.584H0.714L5.25 7.08L4.634 11ZM14.2751 5.372C13.9391 7.556 14.6811 11.168 20.6451 11.168H21.1911C26.7211 11.168 27.8411 7.668 28.1771 5.428L28.9471 0.584H25.0551L24.3271 5.232C24.1031 6.52 23.4311 8.046 20.9811 8.046H20.9671C18.3911 8.046 17.9711 6.52 18.1951 5.176L18.9231 0.584H15.0311L14.2751 5.372ZM27.7328 11H35.3908C41.2988 11 42.7548 8.438 43.0908 6.268C43.1468 5.89 43.1748 5.498 43.1748 5.064C43.1748 2.712 41.6068 0.584 36.1748 0.584H29.3848L27.7328 11ZM32.8148 3.314H35.6988C38.6108 3.314 39.1148 4.434 39.1148 5.386C39.1148 6.072 38.9608 8.242 34.9288 8.242H32.0308L32.8148 3.314ZM50.7991 6.716H47.4111L49.5811 3.118L50.7991 6.716ZM52.2411 11H56.3991L52.5771 0.584H47.3831L40.8871 11H44.8491L45.8571 9.32H51.6671L52.2411 11ZM57.6632 0.584L56.0112 11H67.3232L67.7292 8.396H60.2392L60.4772 6.968H67.7152L68.1212 4.434H60.8832L61.0792 3.132H68.4572L68.8632 0.584H57.6632ZM72.0372 11H77.2032L83.4192 0.584H79.3172L75.0612 7.892L72.6672 0.584H68.3972L72.0372 11Z" fill="#A8CF36"/>
<path d="M84.791 11H94.535C98.147 11 99.197 9.39 99.197 7.542C99.197 5.974 97.965 5.33 97.209 5.134C98.021 4.952 99.365 4.322 99.365 2.894C99.365 1.578 98.553 0.584 95.851 0.584H86.443L84.791 11ZM89.705 4.42L89.943 2.95H94.409C95.151 2.95 95.361 3.216 95.361 3.608C95.361 4.014 95.081 4.42 94.227 4.42H89.705ZM89.061 8.55L89.341 6.758H94.045C94.955 6.758 95.137 7.15 95.137 7.542C95.137 7.948 94.899 8.55 93.793 8.55H89.061ZM103.548 4.91L103.842 3.118H108.28C109.078 3.118 109.344 3.44 109.344 3.902C109.344 4.392 108.994 4.91 108.042 4.91H103.548ZM103.156 7.43H106.838C108.392 7.43 108.84 8.06 108.658 9.25L108.476 10.398C108.42 10.748 108.434 10.902 108.49 11H112.452L112.466 10.93C112.424 10.762 112.34 10.482 112.452 9.824L112.718 8.186C112.942 6.828 112.102 6.086 110.996 5.75C112.06 5.498 113.474 4.714 113.474 3.076C113.474 1.578 112.368 0.584 109.652 0.584H100.37L98.7183 11H102.596L103.156 7.43ZM121.771 6.716H118.383L120.553 3.118L121.771 6.716ZM123.213 11H127.371L123.549 0.584H118.355L111.859 11H115.821L116.829 9.32H122.639L123.213 11ZM128.635 0.584L126.983 11H130.833L131.841 4.602L137.119 11H140.955L142.607 0.584H138.771L137.819 6.604L132.933 0.584H128.635ZM141.484 11H149.142C155.05 11 156.506 8.438 156.842 6.268C156.898 5.89 156.926 5.498 156.926 5.064C156.926 2.712 155.358 0.584 149.926 0.584H143.136L141.484 11ZM146.566 3.314H149.45C152.362 3.314 152.866 4.434 152.866 5.386C152.866 6.072 152.712 8.242 148.68 8.242H145.782L146.566 3.314ZM161.748 0.584H157.87L156.218 11H160.096L161.748 0.584ZM162.282 0.584L160.63 11H164.48L165.488 4.602L170.766 11H174.602L176.254 0.584H172.418L171.466 6.604L166.58 0.584H162.282ZM182.313 11.196C185.295 11.196 186.667 9.992 187.073 9.544C187.227 9.908 187.325 10.65 187.325 11H189.691L190.615 5.134H183.111L182.789 7.164H186.373C186.303 7.5 185.365 8.466 182.803 8.466C180.493 8.466 179.611 7.402 179.611 6.142C179.611 5.96 179.625 5.806 179.667 5.582C179.849 4.336 180.759 3.104 183.489 3.104C186.317 3.104 186.541 4.154 186.611 4.42H190.629C190.685 2.936 189.957 0.388 183.755 0.388H183.321C177.343 0.388 175.971 3.16 175.635 5.344C175.579 5.722 175.551 6.086 175.551 6.408C175.551 8.55 176.881 11.196 182.019 11.196H182.313Z" fill="white"/>
</svg>
